<?xml version="1.0" encoding="UTF-8"?>
<svg version="1.1" xmlns="http://www.w3.org/2000/svg" width="30" height="30">
<path d="M0 0 C3.12578143 1.6720747 5.39281175 3.7856235 7 7 C7.51512617 11.09157355 7.94367269 15.23589546 5.953125 18.95703125 C3.55501226 21.85592636 1.60351712 23.79811835 -2.171875 24.2734375 C-9.98876369 24.58137554 -9.98876369 24.58137554 -13.5625 21.625 C-17.3057723 17.59378368 -17.39037018 14.90519941 -17.359375 9.55078125 C-16.78039966 5.44131496 -15.00085071 3.78650423 -12 1 C-8.27533151 -0.86233425 -4.05504687 -0.57130829 0 0 Z M-8 8 C-8 10.64 -8 13.28 -8 16 C-4.45481116 14.60240095 -4.45481116 14.60240095 -1 13 C-1 12.34 -1 11.68 -1 11 C-4.22114157 8.68407978 -4.22114157 8.68407978 -8 8 Z " fill="#FFFFFF" transform="translate(20,3)"/>
</svg>
